<svg xmlns="http://www.w3.org/2000/svg" width="1em" height="1em" viewBox="0 0 24 24"><path fill="#384001" d="M5 21q-.825 0-1.413-.587Q3 19.825 3 19V5q0-.825.587-1.413Q4.175 3 5 3h14q.825 0 1.413.587Q21 4.175 21 5v14q0 .825-.587 1.413Q19.825 21 19 21Zm5-4h4q.825 0 1.413-.587Q16 15.825 16 15v-3q0-.425-.287-.713Q15.425 11 15 11h-2q-.425 0-.712.287Q12 11.575 12 12t.288.712Q12.575 13 13 13h1v2h-4V9h6q0-.825-.587-1.413Q14.825 7 14 7h-4q-.825 0-1.412.587Q8 8.175 8 9v6q0 .825.588 1.413Q9.175 17 10 17Z"/></svg>